<?xml version="1.0" encoding="utf-8"?>
<!-- Generator: Adobe Illustrator 15.1.0, SVG Export Plug-In . SVG Version: 6.00 Build 0)  -->
<!DOCTYPE svg PUBLIC "-//W3C//DTD SVG 1.1//EN" "http://www.w3.org/Graphics/SVG/1.1/DTD/svg11.dtd">
<svg version="1.1" id="Layer_1" xmlns="http://www.w3.org/2000/svg" xmlns:xlink="http://www.w3.org/1999/xlink" x="0px" y="0px"
	 width="256px" height="256px" viewBox="0 0 256 256" enable-background="new 0 0 256 256" xml:space="preserve">
<rect x="214.667" y="92.852" fill="#FFFFFF" width="25.222" height="8.619"/>
<path fill="#FFFFFF" d="M245.137,155.691c-0.576-2.832-1.574-5.303-2.994-7.412c-1.422-2.105-3.381-3.752-5.875-4.94
	c-2.496-1.187-5.625-1.782-9.386-1.782c-3.302,0-6.431,0.545-9.386,2.037c-2.957,1.495-5.24,3.406-6.854,6.406H210v-24l-20,19v6
	h0.193c-2.15-4-4.799-6.223-7.946-8.139c-3.149-1.913-6.757-2.978-10.825-2.978c-3.916,0-7.429,0.734-10.539,2.304
	c-3.109,1.57-5.758,3.612-7.947,6.18c-2.188,2.568-3.877,5.541-5.065,8.949c-1.19,3.41-1.785,6.947-1.785,10.625
	c0,3.832,0.558,7.507,1.67,11.027c1.112,3.526,2.765,6.627,4.952,9.307c2.188,2.684,4.896,4.81,8.119,6.38
	c3.226,1.567,6.91,2.354,11.058,2.354c3.839,0,7.33-0.829,10.479-2.706c3.146-1.875,5.758-4.303,7.83-7.303H190v10.008
	c0,2.758-0.001,5.344-0.422,7.758c-0.422,2.412-1.084,4.5-2.197,6.262c-1.113,1.763-2.615,3.16-4.611,4.195
	c-1.998,1.034-4.58,1.553-7.806,1.553c-4.761,0-8.625-1.125-11.618-3.77c-2.994-2.643-4.479-7.006-4.479-11.006h-10.366
	c0.076,3,0.769,7.042,2.073,10.029c1.306,2.988,3.109,5.435,5.412,7.544c2.305,2.106,5.027,3.665,8.178,4.776
	c3.146,1.109,6.604,1.643,10.365,1.643c5.221,0,9.539-0.799,12.957-2.369c3.414-1.57,6.104-3.78,8.062-6.614
	c1.959-2.834,3.32-6.183,4.087-10.09c0.608-3.095,0.967-6.919,1.092-9.919H210v-24.759c0-2.452,0.282-4.943,0.436-7.47
	c0.154-2.528,0.738-4.826,1.543-6.895c0.807-2.068,2.162-3.773,3.969-5.113c1.803-1.341,4.42-2.013,7.8-2.013
	c2.608,0,4.714,0.364,6.289,1.093c1.573,0.729,2.789,1.781,3.635,3.16c0.845,1.379,1.567,3.008,1.797,4.885
	c0.23,1.877,0.532,3.963,0.532,6.262V197h10v-32.114C246,161.593,245.712,158.529,245.137,155.691z M189.848,175.805
	c-0.768,2.34-1.898,4.406-3.396,6.207c-1.497,1.801-3.321,3.217-5.471,4.252c-2.149,1.034-4.646,1.551-7.485,1.551
	c-2.765,0-5.202-0.535-7.312-1.607c-2.115-1.073-3.879-2.527-5.3-4.368c-1.422-1.838-2.516-3.925-3.28-6.263
	c-0.771-2.335-1.152-4.77-1.152-7.299c0-2.525,0.383-4.94,1.152-7.238c0.766-2.298,1.879-4.348,3.34-6.148
	c1.457-1.8,3.242-3.234,5.355-4.311c2.11-1.071,4.51-1.607,7.197-1.607c2.763,0,5.24,0.516,7.428,1.551
	c2.189,1.035,4.031,2.434,5.528,4.195c1.498,1.764,2.63,3.813,3.397,6.148c0.768,2.337,1.151,4.808,1.151,7.41
	C191,170.961,190.615,173.469,189.848,175.805z"/>
<path fill="#FFFFFF" d="M135.434,142.882c-1.459-2.911-3.457-5.209-5.99-6.896c-2.533-1.685-5.452-2.528-8.752-2.528
	c-2.227,0-4.3,0.401-6.219,1.206c-1.92,0.805-3.59,1.917-5.01,3.333c-1.421,1.418-2.553,3.084-3.397,4.998
	c-0.846,1.917-1.267,3.946-1.267,6.091c0,1.838,0.248,3.43,0.749,4.77c0.498,1.342,1.209,2.526,2.13,3.563
	c0.922,1.034,2.016,1.973,3.283,2.814c1.267,0.845,2.667,1.649,4.203,2.414l10.135,5.401c1.227,0.845,2.169,1.666,2.822,2.472
	c0.651,0.805,0.979,1.936,0.979,3.391c0,2.297-0.807,4.137-2.419,5.517c-1.612,1.378-3.532,2.067-5.758,2.067
	c-2.458,0-4.434-0.65-5.931-1.954c-1.498-1.302-2.784-2.947-3.859-4.94l-8.868,4.021c0.691,1.917,1.688,3.62,2.995,5.113
	c1.304,1.496,2.802,2.76,4.491,3.793c1.688,1.035,3.473,1.818,5.356,2.355c1.88,0.535,3.818,0.805,5.816,0.805
	c2.533,0,4.912-0.441,7.14-1.32c2.226-0.881,4.185-2.126,5.874-3.735c1.688-1.61,3.032-3.505,4.031-5.688
	c0.997-2.184,1.497-4.539,1.497-7.068c0-2.143-0.347-4.002-1.037-5.574c-0.69-1.568-1.612-2.967-2.765-4.193
	c-1.15-1.226-2.477-2.279-3.973-3.16s-3.053-1.666-4.665-2.355c-1.613-0.689-3.167-1.359-4.665-2.012
	c-1.497-0.648-2.821-1.359-3.973-2.125c-1.152-0.766-2.093-1.589-2.822-2.471c-0.73-0.881-1.094-1.896-1.094-3.047
	c0-1.531,0.576-2.795,1.728-3.791c1.152-0.996,2.456-1.494,3.916-1.494c1.535,0,2.917,0.457,4.146,1.377
	c1.227,0.92,2.148,2.031,2.764,3.334L135.434,142.882z"/>
<path fill="#FFFFFF" d="M110.996,178.764v-1.608c0-3.982-0.518-7.718-1.554-11.204c-1.037-3.485-2.592-6.512-4.665-9.079
	c-2.073-2.565-4.684-4.597-7.831-6.09c-3.149-1.494-6.873-2.241-11.172-2.241c-4.376,0-8.196,0.73-11.459,2.184
	c-3.264,1.457-5.989,3.486-8.177,6.09c-2.188,2.606-3.84,5.67-4.952,9.194c-1.114,3.524-1.67,7.355-1.67,11.492
	c0,3.983,0.614,7.699,1.843,11.147c1.227,3.447,2.974,6.434,5.24,8.963c2.264,2.527,5.028,4.521,8.292,5.976
	c3.263,1.454,6.968,2.183,11.114,2.183c5.298,0,10.153-1.283,14.569-3.849c4.414-2.567,7.889-6.187,10.422-10.858l-8.752-4.942
	c-1.998,3.217-4.186,5.765-6.565,7.642c-2.381,1.877-5.568,2.815-9.559,2.815c-2.458,0-4.684-0.498-6.68-1.495
	c-1.997-0.994-3.705-2.314-5.125-3.964c-1.421-1.646-2.516-3.542-3.282-5.688c-0.769-2.144-1.152-4.367-1.152-6.666H110.996
	L110.996,178.764z M70.457,170.949c0.614-3.908,2.303-7.124,5.067-9.653c2.764-2.528,6.18-3.792,10.25-3.792
	c4.147,0,7.504,1.227,10.078,3.678c2.571,2.452,4.164,5.707,4.779,9.768H70.457z"/>
<path fill="#FFFFFF" d="M30.097,195.365c-2.113-1.072-3.878-2.528-5.298-4.367c-1.421-1.838-2.515-3.924-3.282-6.262
	c-0.768-2.336-1.152-4.771-1.152-7.297c0-2.529,0.384-4.942,1.152-7.24c0.767-2.297,1.88-4.348,3.34-6.148
	c1.457-1.799,3.243-3.236,5.355-4.309c2.111-1.072,4.51-1.609,7.198-1.609c2.764,0,5.24,0.518,7.429,1.551
	c2.188,1.035,4.03,2.435,5.528,4.195c1.497,1.764,2.629,3.813,3.397,6.146c0.767,2.338,1.152,4.809,1.152,7.414
	c0,2.683-0.385,5.19-1.152,7.526c-0.768,2.337-1.9,4.406-3.397,6.205c-1.498,1.802-3.322,3.22-5.471,4.252
	c-2.15,1.035-4.646,1.552-7.486,1.552C34.646,196.973,32.208,196.438,30.097,195.365 M54.34,204.328h10.365V104.58H54.34v54.93
	h-0.23c-2.151-3.219-4.8-5.783-7.947-7.699c-3.149-1.914-6.757-2.873-10.826-2.873c-3.916,0-7.428,0.787-10.538,2.355
	c-3.109,1.571-5.758,3.641-7.946,6.205c-2.189,2.568-3.878,5.557-5.068,8.964c-1.191,3.409-1.785,6.953-1.785,10.63
	c0,3.831,0.556,7.51,1.67,11.032c1.112,3.524,2.764,6.628,4.952,9.31s4.895,4.809,8.12,6.377c3.224,1.569,6.91,2.355,11.056,2.355
	c3.838,0,7.331-0.939,10.48-2.814c3.148-1.877,5.759-4.348,7.832-7.412h0.23V204.328z"/>
<polygon fill="#FFFFFF" points="187.488,32.586 177.123,32.586 177.123,124.334 187.488,124.334 187.488,103.42 210.291,124.334 
	223.768,124.334 194.588,96.544 221.463,70.552 207.759,70.552 187.488,90.778 "/>
<path fill="#FFFFFF" d="M172.172,72.269c-2.072-1.225-4.357-2.127-6.854-2.7c-2.494-0.575-4.973-0.863-7.428-0.863
	c-4.146,0-8.023,0.728-11.633,2.183c-3.609,1.456-6.736,3.468-9.386,6.034c-2.649,2.567-4.724,5.63-6.22,9.194
	c-1.498,3.561-2.246,7.411-2.246,11.548c0,4.063,0.767,7.815,2.303,11.262c1.535,3.448,3.607,6.436,6.219,8.964
	c2.61,2.529,5.662,4.501,9.156,5.918c3.492,1.417,7.236,2.126,11.229,2.126c2.688,0,5.24-0.269,7.66-0.804
	c2.418-0.536,4.816-1.455,7.197-2.757v-13.217c-1.997,2.223-4.204,3.964-6.622,5.229c-2.419,1.264-5.125,1.896-8.12,1.896
	c-2.764,0-5.279-0.478-7.543-1.438c-2.266-0.957-4.225-2.279-5.873-3.964c-1.652-1.684-2.938-3.696-3.859-6.034
	c-0.92-2.336-1.381-4.882-1.381-7.641c0-2.452,0.461-4.827,1.381-7.125c0.923-2.297,2.188-4.31,3.802-6.033
	c1.612-1.725,3.512-3.104,5.7-4.137c2.188-1.034,4.55-1.551,7.082-1.551c6.066,0,11.212,2.413,15.435,7.24L172.172,72.269
	L172.172,72.269z"/>
<path fill="#FFFFFF" d="M90.229,120.785c-2.113-1.072-3.878-2.528-5.298-4.367c-1.421-1.838-2.515-3.924-3.282-6.263
	c-0.768-2.336-1.152-4.77-1.152-7.296c0-2.529,0.384-4.943,1.152-7.241c0.767-2.298,1.88-4.347,3.34-6.147
	c1.457-1.799,3.243-3.236,5.355-4.309c2.111-1.074,4.51-1.61,7.198-1.61c2.764,0,5.24,0.517,7.429,1.552
	c2.188,1.035,4.03,2.433,5.528,4.195c1.497,1.763,2.629,3.812,3.397,6.148c0.767,2.337,1.152,4.808,1.152,7.413
	c0,2.682-0.385,5.19-1.152,7.526c-0.768,2.337-1.9,4.406-3.397,6.205c-1.498,1.801-3.322,3.219-5.471,4.252
	c-2.15,1.035-4.646,1.552-7.486,1.552C94.778,122.394,92.34,121.859,90.229,120.785 M114.472,129.749h10.365V30h-10.365v54.931
	h-0.23c-2.151-3.217-4.8-5.784-7.947-7.7c-3.149-1.914-6.757-2.872-10.826-2.872c-3.916,0-7.428,0.786-10.538,2.355
	c-3.109,1.571-5.758,3.64-7.946,6.205c-2.189,2.568-3.878,5.556-5.068,8.964c-1.191,3.41-1.785,6.954-1.785,10.631
	c0,3.832,0.556,7.509,1.67,11.032c1.112,3.525,2.764,6.627,4.952,9.309s4.895,4.808,8.12,6.377c3.224,1.569,6.91,2.355,11.056,2.355
	c3.838,0,7.331-0.939,10.48-2.816c3.148-1.875,5.759-4.347,7.832-7.413h0.23V129.749z"/>
<rect x="137.148" y="140.813" fill="#FFFFFF" width="10.365" height="53.781"/>
<path fill="#006600" d="M137.264,127.599c-1.381,1.418-2.072,3.122-2.072,5.113c0,1.992,0.691,3.66,2.072,5
	c1.383,1.341,3.07,2.011,5.067,2.011c1.996,0,3.687-0.67,5.067-2.011c1.383-1.34,2.074-3.007,2.074-5
	c0-1.991-0.69-3.694-2.074-5.113c-1.381-1.418-3.071-2.127-5.067-2.127C140.334,125.472,138.646,126.18,137.264,127.599"/>
<g>
	<path fill="#FFFFFF" d="M198.534,223.432c0,1.404-1.146,2.568-2.575,2.568s-2.574-1.165-2.574-2.568c0-1.428,1.145-2.57,2.574-2.57
		C197.391,220.861,198.534,222.004,198.534,223.432z"/>
	<path fill="#FFFFFF" d="M209.182,217.964c-0.593-0.438-1.298-0.791-2.066-0.791c-1.541,0-2.752,1.187-2.752,2.745
		c0,1.625,1.166,2.766,2.816,2.766c0.704,0,1.475-0.285,2.002-0.767v3.38c-0.88,0.438-1.848,0.637-2.815,0.637
		c-3.345,0-6.14-2.48-6.14-5.884c0-3.623,2.773-6.126,6.316-6.126c0.924,0,1.848,0.221,2.641,0.659v3.381H209.182z"/>
	<path fill="#FFFFFF" d="M224.43,219.939c0,3.82-3.168,5.994-6.8,5.994c-3.608,0-6.799-2.151-6.799-5.994
		c0-3.842,3.168-6.016,6.799-6.016C221.262,213.924,224.43,216.098,224.43,219.939z M215.057,219.939
		c0,1.428,0.945,2.525,2.573,2.525s2.574-1.098,2.574-2.525c0-1.381-0.946-2.547-2.574-2.547S215.057,218.559,215.057,219.939z"/>
	<path fill="#FFFFFF" d="M230.234,215.702h0.045c0.945-1.251,2.111-1.778,3.563-1.778c1.628,0,3.036,0.659,3.851,2.152
		c0.771-1.406,2.289-2.152,3.828-2.152c2.86,0,3.852,1.867,3.852,4.457v7.18h-4.005v-5.379c0-1.164,0.044-3.074-1.649-3.074
		c-1.849,0-1.914,1.734-1.914,3.074v5.379H233.8v-5.379c0-1.25,0-3.162-1.782-3.162c-1.783,0-1.783,1.912-1.783,3.162v5.379h-4.004
		v-11.264h4.004V215.702z"/>
</g>
</svg>
